<svg version="1.1" id="Layer_1" xmlns="http://www.w3.org/2000/svg" xmlns:xlink="http://www.w3.org/1999/xlink" x="0px" y="0px"
	 viewBox="89.5 115.5 77 25" enable-background="new 89.5 115.5 77 25" xml:space="preserve">
<path fill="#F0425F" d="M160.224,140.162v-12.504c0-3.183-1.897-6.087-5.165-6.087s-4.962,2.904-4.962,6.087v12.504h-5.969v-12.547
	c0-3.183-2.015-6.001-5.239-6.001c-1.779,0-2.947,0.803-3.665,2.047l-4.115,5.894l-2.948,4.233l-3.385,4.919
	c-1.694,0.932-3.676,1.455-5.723,1.455c-3.311,0-6.333-1.327-8.509-3.514c-2.186,2.187-5.208,3.514-8.552,3.514
	c-6.74,0.033-12.226-5.411-12.226-12.14c0-6.741,5.443-12.185,12.226-12.185c3.344,0,6.366,1.339,8.552,3.515
	c2.176-2.176,5.198-3.515,8.509-3.515c3.579,0,6.815,1.575,9.023,4.072l-3.504,5.047c-1.093-1.983-3.14-3.311-5.562-3.311
	c-2.261,0-4.233,1.211-5.369,2.99c0,0,0,0.042-0.043,0.042h-6.161c0,0,0-0.042-0.043-0.042c-1.125-1.822-3.107-3.022-5.401-3.022
	c-3.514,0-6.333,2.861-6.333,6.409c0,3.547,2.819,6.407,6.333,6.407c2.251,0,4.234-1.168,5.358-2.979h6.334
	c0.557,0.879,1.339,1.629,2.261,2.154c0.911,0.523,1.982,0.824,3.107,0.824c1.886,0,3.547-0.846,4.715-2.133l0.204-0.288
	c0.193-0.237,0.396-0.482,0.525-0.761l3.751-5.401l1.887-2.701l4.521-6.537c1.168-0.365,2.422-0.611,3.911-0.611
	c3.141,0,5.809,1.254,7.939,4.683c1.373-3.343,4.438-4.758,7.342-4.758h3.43c4.961,0,8.785,4.276,8.785,9.194l0.172,15.044H160.224z
	"/>
<polygon fill="#4BE8BB" points="134.173,131.322 134.173,140.162 127.594,140.162 "/>
</svg>
